<svg xmlns="http://www.w3.org/2000/svg" viewBox="0 0 1280 640" role="img" aria-labelledby="title desc">
  <title id="title">Loomrail — accountable AI software teams</title>
  <desc id="desc">Repository preview with the Loomrail mark, name, and product descriptor.</desc>
  <rect width="1280" height="640" fill="#171719" />
  <path d="M760 0h1v640h-1zM902 0h1v640h-1zM1044 0h1v640h-1zM1186 0h1v640h-1z" fill="#2b2b2f" />
  <path d="M760 137h520v1H760zM760 279h520v1H760zM760 421h520v1H760zM760 563h520v1H760z" fill="#2b2b2f" />
  <rect x="104" y="128" width="136" height="136" rx="34" fill="#5e6ad2" />
  <path d="M143 161v70h70" fill="none" stroke="#fff" stroke-linecap="round" stroke-linejoin="round" stroke-width="16" />
  <path d="M174 161v39h39" fill="none" stroke="#fff" stroke-linecap="round" stroke-linejoin="round" stroke-width="16" />
  <text x="104" y="365" fill="#f3f3f5" font-family="Inter, ui-sans-serif, -apple-system, BlinkMacSystemFont, 'Segoe UI', sans-serif" font-size="92" font-weight="700" letter-spacing="-4">Loomrail</text>
  <text x="108" y="425" fill="#a7a7ad" font-family="Inter, ui-sans-serif, -apple-system, BlinkMacSystemFont, 'Segoe UI', sans-serif" font-size="30">The local control plane for</text>
  <text x="108" y="467" fill="#a7a7ad" font-family="Inter, ui-sans-serif, -apple-system, BlinkMacSystemFont, 'Segoe UI', sans-serif" font-size="30">accountable AI software teams.</text>
  <path d="M860 320h204M1064 320l-34-34M1064 320l-34 34" fill="none" stroke="#5e6ad2" stroke-linecap="round" stroke-linejoin="round" stroke-width="14" />
  <circle cx="860" cy="320" r="18" fill="#5e6ad2" />
</svg>
